HIERARCHY
ROOT Hips
{
	OFFSET 0.000000 71.427986 0.000000
	CHANNELS 6 Xposition Yposition Zposition Xrotation Yrotation Zrotation
	JOINT Pelvis
	{
		OFFSET 0.000000 0.000000 0.000000
		CHANNELS 3 Xrotation Yrotation Zrotation
		JOINT LeftUpLeg
		{
			OFFSET 6.797100 -2.508499 -1.318700
			CHANNELS 3 Xrotation Yrotation Zrotation
			JOINT LeftLeg
			{
				OFFSET 0.069008 -29.241863 0.690200
				CHANNELS 3 Xrotation Yrotation Zrotation
				JOINT LeftFoot
				{
					OFFSET -0.069008 -29.568123 -0.266800
					CHANNELS 3 Xrotation Yrotation Zrotation
					JOINT LeftToeBase
					{
						OFFSET 3.145500 -8.631000 16.059900
						CHANNELS 3 Xrotation Yrotation Zrotation
						End Site
						{
							OFFSET 0.000000 18.501587 0.000000
						}
					}
				}
			}
			JOINT Left_ShortSleeve
			{
				OFFSET 0.265923 -10.480953 1.153800
				CHANNELS 3 Xrotation Yrotation Zrotation
				End Site
				{
					OFFSET 1.725763 19.823879 0.000000
				}
			}
		}
		JOINT RightUpLeg
		{
			OFFSET -6.797100 -2.508499 -1.318700
			CHANNELS 3 Xrotation Yrotation Zrotation
			JOINT RightLeg
			{
				OFFSET -0.082453 -29.241932 0.688000
				CHANNELS 3 Xrotation Yrotation Zrotation
				JOINT RightFoot
				{
					OFFSET 0.082453 -29.568058 -0.264600
					CHANNELS 3 Xrotation Yrotation Zrotation
					JOINT RightToeBase
					{
						OFFSET -3.115300 -8.682800 16.113400
						CHANNELS 3 Xrotation Yrotation Zrotation
						End Site
						{
							OFFSET 0.000000 18.567114 0.000000
						}
					}
				}
			}
			JOINT Right_ShortSleeve
			{
				OFFSET -0.265923 -10.480953 1.153800
				CHANNELS 3 Xrotation Yrotation Zrotation
				End Site
				{
					OFFSET -1.725766 19.823910 0.000000
				}
			}
		}
	}
	JOINT Spine
	{
		OFFSET 0.000000 13.368103 0.470500
		CHANNELS 3 Xrotation Yrotation Zrotation
		JOINT Spine1
		{
			OFFSET 0.147000 13.837402 0.538800
			CHANNELS 3 Xrotation Yrotation Zrotation
			JOINT Spine2
			{
				OFFSET 0.168000 16.242897 -1.435500
				CHANNELS 3 Xrotation Yrotation Zrotation
				JOINT Neck
				{
					OFFSET 0.217200 18.631500 -1.679100
					CHANNELS 3 Xrotation Yrotation Zrotation
					JOINT Head
					{
						OFFSET 0.000000 6.599396 1.385900
						CHANNELS 3 Xrotation Yrotation Zrotation
						JOINT Hat
						{
							OFFSET -0.532200 27.220596 -10.096100
							CHANNELS 3 Xrotation Yrotation Zrotation
							End Site
							{
								OFFSET 0.000000 22.029861 0.000000
							}
						}
						JOINT HairD
						{
							OFFSET -10.777400 17.437393 -1.325900
							CHANNELS 3 Xrotation Yrotation Zrotation
							JOINT HairD1
							{
								OFFSET -3.290299 -11.051193 1.062200
								CHANNELS 3 Xrotation Yrotation Zrotation
								End Site
								{
									OFFSET 0.000000 11.579437 0.000000
								}
							}
						}
						JOINT HairB
						{
							OFFSET -10.777400 17.437393 1.467900
							CHANNELS 3 Xrotation Yrotation Zrotation
							JOINT HairB1
							{
								OFFSET -1.561200 -12.956299 3.590200
								CHANNELS 3 Xrotation Yrotation Zrotation
								End Site
								{
									OFFSET 0.000000 13.534866 0.000000
								}
							}
						}
						JOINT HairA
						{
							OFFSET 9.713100 17.437393 1.467900
							CHANNELS 3 Xrotation Yrotation Zrotation
							JOINT HairA1
							{
								OFFSET 1.561200 -12.956299 3.590200
								CHANNELS 3 Xrotation Yrotation Zrotation
								End Site
								{
									OFFSET 0.000000 13.534866 0.000000
								}
							}
						}
						JOINT HairC
						{
							OFFSET 9.713100 17.437393 -1.325900
							CHANNELS 3 Xrotation Yrotation Zrotation
							JOINT HairC1
							{
								OFFSET 3.290300 -11.051193 1.062200
								CHANNELS 3 Xrotation Yrotation Zrotation
								End Site
								{
									OFFSET 0.000000 11.579437 0.000000
								}
							}
						}
					}
				}
				JOINT LeftShoulder
				{
					OFFSET 5.101800 15.108002 -2.763700
					CHANNELS 3 Xrotation Yrotation Zrotation
					JOINT LeftArm
					{
						OFFSET 9.825497 2.506317 -1.597400
						CHANNELS 3 Xrotation Yrotation Zrotation
						JOINT LeftForeArm
						{
							OFFSET 21.966244 0.000000 0.000000
							CHANNELS 3 Xrotation Yrotation Zrotation
							JOINT LeftHand
							{
								OFFSET 33.879036 0.000000 0.000000
								CHANNELS 3 Xrotation Yrotation Zrotation
								JOINT LeftHandThumb1
								{
									OFFSET 6.715286 -2.359680 3.363841
									CHANNELS 3 Xrotation Yrotation Zrotation
									JOINT LeftHandThumb2
									{
										OFFSET 2.507072 -1.447464 1.447461
										CHANNELS 3 Xrotation Yrotation Zrotation
										JOINT LeftHandThumb3
										{
											OFFSET 2.898338 -1.673355 1.673357
											CHANNELS 3 Xrotation Yrotation Zrotation
											End Site
											{
												OFFSET -0.295959 3.727692 -0.131651
											}
										}
									}
								}
								JOINT LeftHandIndex1
								{
									OFFSET 14.190811 -0.254547 3.840278
									CHANNELS 3 Xrotation Yrotation Zrotation
									JOINT LeftHandIndex2
									{
										OFFSET 3.551727 0.000000 -0.000000
										CHANNELS 3 Xrotation Yrotation Zrotation
										JOINT LeftHandIndex3
										{
											OFFSET 2.894196 0.000000 0.000000
											CHANNELS 3 Xrotation Yrotation Zrotation
											End Site
											{
												OFFSET -1.000603 2.690872 0.366626
											}
										}
									}
								}
								JOINT LeftHandMiddle1
								{
									OFFSET 13.776489 0.000000 0.000000
									CHANNELS 3 Xrotation Yrotation Zrotation
									JOINT LeftHandMiddle2
									{
										OFFSET 3.438232 0.000000 0.000000
										CHANNELS 3 Xrotation Yrotation Zrotation
										JOINT LeftHandMiddle3
										{
											OFFSET 3.691551 0.000000 0.000000
											CHANNELS 3 Xrotation Yrotation Zrotation
											End Site
											{
												OFFSET -1.082298 3.499527 0.457670
											}
										}
									}
								}
								JOINT LeftHandRing1
								{
									OFFSET 13.966164 -0.268127 -3.067488
									CHANNELS 3 Xrotation Yrotation Zrotation
									JOINT LeftHandRing2
									{
										OFFSET 3.162567 0.000000 0.000000
										CHANNELS 3 Xrotation Yrotation Zrotation
										JOINT LeftHandRing3
										{
											OFFSET 3.324348 0.000000 0.000000
											CHANNELS 3 Xrotation Yrotation Zrotation
											End Site
											{
												OFFSET -0.861900 3.184998 0.405154
											}
										}
									}
								}
								JOINT LeftHandPinky1
								{
									OFFSET 13.131393 -0.168503 -5.746925
									CHANNELS 3 Xrotation Yrotation Zrotation
									JOINT LeftHandPinky2
									{
										OFFSET 2.849182 0.000000 0.000000
										CHANNELS 3 Xrotation Yrotation Zrotation
										JOINT LeftHandPinky3
										{
											OFFSET 2.805038 0.000000 0.000000
											CHANNELS 3 Xrotation Yrotation Zrotation
											End Site
											{
												OFFSET -0.882500 2.642609 0.325652
											}
										}
									}
								}
							}
							JOINT Left_Sleeve
							{
								OFFSET 6.592125 -0.646545 0.805568
								CHANNELS 3 Xrotation Yrotation Zrotation
								End Site
								{
									OFFSET -0.000179 20.275787 -0.000000
								}
							}
						}
					}
				}
				JOINT RightShoulder
				{
					OFFSET -5.731700 15.108002 -2.763700
					CHANNELS 3 Xrotation Yrotation Zrotation
					JOINT RightArm
					{
						OFFSET -9.825497 2.506317 -1.597400
						CHANNELS 3 Xrotation Yrotation Zrotation
						JOINT RightForeArm
						{
							OFFSET -21.966242 0.000000 0.000000
							CHANNELS 3 Xrotation Yrotation Zrotation
							JOINT RightHand
							{
								OFFSET -33.879032 0.000000 0.000000
								CHANNELS 3 Xrotation Yrotation Zrotation
								JOINT RightHandThumb1
								{
									OFFSET -6.715286 -2.359680 3.363841
									CHANNELS 3 Xrotation Yrotation Zrotation
									JOINT RightHandThumb2
									{
										OFFSET -2.507072 -1.447464 1.447461
										CHANNELS 3 Xrotation Yrotation Zrotation
										JOINT RightHandThumb3
										{
											OFFSET -2.898338 -1.673355 1.673357
											CHANNELS 3 Xrotation Yrotation Zrotation
											End Site
											{
												OFFSET 0.295959 3.727692 -0.131651
											}
										}
									}
								}
								JOINT RightHandIndex1
								{
									OFFSET -14.190811 -0.254547 3.840278
									CHANNELS 3 Xrotation Yrotation Zrotation
									JOINT RightHandIndex2
									{
										OFFSET -3.551727 0.000000 -0.000000
										CHANNELS 3 Xrotation Yrotation Zrotation
										JOINT RightHandIndex3
										{
											OFFSET -2.894196 0.000000 0.000000
											CHANNELS 3 Xrotation Yrotation Zrotation
											End Site
											{
												OFFSET 1.000603 2.690872 0.366626
											}
										}
									}
								}
								JOINT RightHandMiddle1
								{
									OFFSET -13.776489 0.000000 0.000000
									CHANNELS 3 Xrotation Yrotation Zrotation
									JOINT RightHandMiddle2
									{
										OFFSET -3.438232 0.000000 0.000000
										CHANNELS 3 Xrotation Yrotation Zrotation
										JOINT RightHandMiddle3
										{
											OFFSET -3.691551 0.000000 0.000000
											CHANNELS 3 Xrotation Yrotation Zrotation
											End Site
											{
												OFFSET 1.082298 3.499527 0.457670
											}
										}
									}
								}
								JOINT RightHandRing1
								{
									OFFSET -13.966164 -0.268127 -3.067488
									CHANNELS 3 Xrotation Yrotation Zrotation
									JOINT RightHandRing2
									{
										OFFSET -3.162567 0.000000 0.000000
										CHANNELS 3 Xrotation Yrotation Zrotation
										JOINT RightHandRing3
										{
											OFFSET -3.324348 0.000000 0.000000
											CHANNELS 3 Xrotation Yrotation Zrotation
											End Site
											{
												OFFSET 0.861900 3.184998 0.405154
											}
										}
									}
								}
								JOINT RightHandPinky1
								{
									OFFSET -13.131393 -0.168503 -5.746925
									CHANNELS 3 Xrotation Yrotation Zrotation
									JOINT RightHandPinky2
									{
										OFFSET -2.849182 0.000000 0.000000
										CHANNELS 3 Xrotation Yrotation Zrotation
										JOINT RightHandPinky3
										{
											OFFSET -2.805038 0.000000 0.000000
											CHANNELS 3 Xrotation Yrotation Zrotation
											End Site
											{
												OFFSET 0.882500 2.642609 0.325652
											}
										}
									}
								}
							}
							JOINT Right_Sleeve
							{
								OFFSET -6.592125 -0.646545 0.805568
								CHANNELS 3 Xrotation Yrotation Zrotation
								End Site
								{
									OFFSET 0.000179 20.275787 -0.000000
								}
							}
						}
					}
				}
				JOINT Bind_Right_JacketString
				{
					OFFSET -3.534800 11.969597 7.200700
					CHANNELS 3 Xrotation Yrotation Zrotation
					JOINT Bind_Right_JacketString1
					{
						OFFSET -0.319900 -6.102600 2.794100
						CHANNELS 3 Xrotation Yrotation Zrotation
						End Site
						{
							OFFSET 0.000000 6.719452 0.000000
						}
					}
				}
				JOINT Bind_Left_JacketString
				{
					OFFSET 2.904800 11.969597 7.200700
					CHANNELS 3 Xrotation Yrotation Zrotation
					JOINT Bind_Left_JacketString1
					{
						OFFSET 0.364800 -5.904503 3.186800
						CHANNELS 3 Xrotation Yrotation Zrotation
						End Site
						{
							OFFSET 0.000000 6.719513 0.000000
						}
					}
				}
				JOINT HairE
				{
					OFFSET 5.915200 17.612701 -11.592200
					CHANNELS 3 Xrotation Yrotation Zrotation
					JOINT HairE1
					{
						OFFSET 0.289200 -7.171898 -1.284500
						CHANNELS 3 Xrotation Yrotation Zrotation
						End Site
						{
							OFFSET 0.000000 7.291756 0.000000
						}
					}
				}
				JOINT HairF
				{
					OFFSET -0.864800 17.612701 -11.592200
					CHANNELS 3 Xrotation Yrotation Zrotation
					JOINT HairF1
					{
						OFFSET 0.000000 -14.087097 -2.127501
						CHANNELS 3 Xrotation Yrotation Zrotation
						End Site
						{
							OFFSET 0.000000 14.246841 0.000000
						}
					}
				}
				JOINT HairG
				{
					OFFSET -8.087700 17.612701 -11.592200
					CHANNELS 3 Xrotation Yrotation Zrotation
					JOINT HairG1
					{
						OFFSET -0.293600 -6.081398 -0.910100
						CHANNELS 3 Xrotation Yrotation Zrotation
						End Site
						{
							OFFSET 0.000000 6.156120 0.000000
						}
					}
				}
			}
		}
	}
	JOINT Pouch
	{
		OFFSET 0.000000 4.394501 10.847300
		CHANNELS 3 Xrotation Yrotation Zrotation
		End Site
		{
			OFFSET 0.000000 21.880577 0.000000
		}
	}
	JOINT Bag
	{
		OFFSET -13.229000 4.813004 -0.593300
		CHANNELS 3 Xrotation Yrotation Zrotation
		End Site
		{
			OFFSET 0.000000 21.880577 0.000000
		}
	}
	JOINT OccupyGuyFacialAnim_Joint
	{
		OFFSET 1.000000 -70.206398 -1.655000
		CHANNELS 3 Xrotation Yrotation Zrotation
		End Site
		{
			OFFSET 0.000000 21.880577 0.000000
		}
	}
}
MOTION
Frames: 4
Frame Time: 0.016667
-0.617242 68.956612 1.247231 -5.348712 -7.692447 6.218432 -0.000000 -0.000000 0.000000 -26.932507 7.137292 10.119918 26.119885 8.969189 0.689898 23.655793 9.184102 1.145173 0.000000 -0.000001 -0.000001 -0.000001 -0.000000 -0.000001 -7.397457 -7.993146 14.278923 18.530411 -10.300969 -1.122249 -9.792191 -14.205357 -21.310723 0.000000 0.000003 0.000000 -0.000004 0.000000 -0.000004 0.575851 0.953334 -3.421335 0.947293 2.037201 -4.377106 0.968934 2.043659 -4.365420 2.884317 1.135687 4.005908 7.888285 9.350192 8.465894 0.000001 -0.000000 -0.000000 0.000001 -0.000000 -0.000000 0.000001 -0.000000 -0.000000 0.000001 -0.000000 -0.000000 0.000001 -0.000000 -0.000000 0.000001 -0.000000 -0.000000 0.000001 -0.000000 -0.000000 0.000001 -0.000000 -0.000000 0.000001 -0.000000 -0.000000 1.058070 -0.340530 -4.891291 -16.372119 12.814418 -32.934028 0.000001 -24.507081 0.000004 42.987595 -10.562012 -4.600059 -1.540049 3.690189 6.142355 3.946763 7.971413 0.752860 0.000000 -0.000001 0.000004 0.000002 0.000006 -0.000003 0.000005 -0.000000 -0.000002 -0.000002 0.000006 0.000001 -0.000002 -0.001915 0.015988 0.000003 0.001913 -0.015978 0.000000 0.000001 0.000001 0.000004 0.000007 0.000001 -0.000005 -0.000002 -0.000029 -0.000001 0.000003 0.000001 -0.018087 4.054249 0.511067 -0.018093 -4.054242 -0.511050 0.000002 0.000003 0.000003 0.000001 -0.000001 -0.000002 0.199128 -5.464830 5.846317 -40.201209 28.677454 7.199772 -0.000005 4.457084 -0.000001 36.569041 21.327747 -11.047057 -1.908782 1.147433 -8.502738 4.645043 -8.656817 -0.231312 -0.000001 -0.000002 -0.000003 0.007130 0.315401 -2.588941 0.000002 0.000013 0.000056 -0.000003 -0.000003 -0.000000 0.007126 0.315396 -2.588942 -0.000003 0.000003 0.000118 0.000002 -0.000003 -0.000001 0.007125 0.315389 -2.588953 0.000002 0.000003 0.000109 -0.000000 -0.000004 -0.000004 0.007124 0.315393 -2.588945 0.000003 0.000006 0.000012 -0.000002 0.000002 0.000001 0.000002 0.000002 0.000001 0.000000 -0.000000 0.000001 -0.000000 -0.000000 0.000000 0.000000 -0.000000 0.000001 0.000000 -0.000000 0.000001 0.000000 -0.000000 0.000001 -0.000000 -0.000000 0.000000 0.000000 -0.000000 0.000001 0.000000 -0.000000 0.000001 0.000000 -0.000000 0.000001 -0.000000 -0.000000 0.000000 -0.000000 -0.000000 0.000000 -0.000000 -0.000000 0.000000 -0.000000 -0.000000 0.000000 
-0.694657 69.081528 1.881072 -5.501145 -10.581786 6.786787 -0.000000 0.000002 -0.000000 -26.633495 7.489734 8.238623 23.186249 8.590093 0.652814 27.454973 7.972317 -1.385139 0.000001 0.000001 0.000000 -0.000000 -0.000001 -0.000000 -6.779110 -7.835151 13.513807 20.149014 -10.233071 -1.061539 -10.705441 -12.734262 -19.892636 -0.000000 0.000000 -0.000000 -0.000002 -0.000003 0.000001 0.706518 1.127286 -3.731342 1.150022 2.492869 -4.561966 1.175538 2.502168 -4.546987 2.728371 1.302015 3.879430 7.459738 10.036896 8.266647 0.000000 -0.000000 0.000001 0.000000 -0.000000 0.000001 0.000000 -0.000000 0.000001 0.000000 -0.000000 0.000000 -0.000001 -0.000000 -0.000000 0.000000 -0.000000 0.000000 -0.000001 -0.000000 -0.000000 0.000000 -0.000000 0.000001 0.000000 -0.000000 0.000001 0.919752 0.306315 -3.868008 -17.993283 11.628143 -29.784140 -0.000010 -26.012419 -0.000011 42.448806 -8.511050 -6.736296 -1.540045 3.690181 6.142355 3.946762 7.971410 0.752854 0.000000 0.000005 0.000001 0.000002 0.000001 -0.000001 0.000003 0.000003 -0.000001 0.000001 0.000002 0.000000 -0.000001 -0.001920 0.015989 0.000002 0.001917 -0.015983 0.000001 -0.000004 0.000002 0.000006 0.000000 0.000004 -0.000005 -0.000001 -0.000036 -0.000001 0.000002 0.000000 -0.018088 4.054244 0.511066 -0.018093 -4.054243 -0.511054 -0.000000 0.000003 0.000003 -0.000000 0.000001 0.000001 0.206930 -5.347462 5.805464 -41.452391 31.404103 7.845455 0.000021 4.254774 -0.000002 36.426642 17.698506 -11.018017 -1.940992 0.213044 -8.122627 4.645041 -8.656813 -0.231322 0.000000 -0.000002 0.000000 0.004593 0.253159 -2.077742 0.000005 0.000010 0.000061 -0.000001 -0.000001 0.000005 0.004591 0.253163 -2.077741 -0.000001 -0.000001 0.000123 0.000002 0.000001 0.000001 0.004590 0.253156 -2.077736 0.000007 0.000000 0.000112 -0.000001 -0.000004 -0.000003 0.004596 0.253152 -2.077738 0.000002 0.000009 0.000013 -0.000002 0.000002 0.000006 -0.000001 -0.000001 0.000002 0.000000 -0.000000 0.000000 -0.000000 0.000000 0.000000 0.000000 -0.000000 0.000000 0.000000 -0.000000 0.000000 0.000000 -0.000000 0.000000 -0.000000 0.000000 0.000000 0.000000 -0.000000 0.000000 0.000000 -0.000000 0.000000 0.000000 -0.000000 0.000000 -0.000000 0.000000 0.000000 -0.000000 0.000002 -0.000000 -0.000000 0.000002 -0.000000 -0.000000 0.000002 -0.000000 
-0.773942 69.209732 2.519562 -5.657683 -13.470381 7.294471 0.000001 -0.000000 -0.000001 -27.915063 7.664664 6.414753 23.968577 8.651407 0.659259 27.711290 7.008133 -3.842821 0.000001 0.000000 0.000001 0.000001 0.000001 -0.000000 -6.201697 -7.700573 12.692245 21.871441 -10.165962 -0.999961 -11.640163 -11.324384 -18.376904 -0.000000 0.000000 -0.000000 -0.000001 -0.000001 -0.000002 0.837083 1.305161 -4.023080 1.350767 2.961711 -4.730876 1.379869 2.974013 -4.712206 2.584065 1.463159 3.751657 7.038279 10.697002 8.064926 0.000001 -0.000000 -0.000000 0.000001 -0.000000 -0.000000 0.000001 -0.000000 -0.000000 0.000001 -0.000000 0.000000 -0.000000 -0.000001 -0.000000 0.000001 -0.000000 0.000000 -0.000000 -0.000001 -0.000000 0.000001 -0.000000 -0.000000 0.000001 -0.000000 -0.000000 0.757069 0.956894 -2.838910 -19.446288 10.332251 -26.706624 0.000003 -27.039606 -0.000008 42.214138 -6.536506 -9.326120 -1.540048 3.690188 6.142355 3.946760 7.971410 0.752852 -0.000004 0.000004 0.000000 0.000003 0.000004 -0.000004 -0.000000 0.000003 0.000000 0.000004 -0.000003 -0.000000 0.000000 -0.001919 0.015984 0.000004 0.001920 -0.015983 0.000001 -0.000001 0.000000 0.000002 0.000006 0.000000 -0.000005 -0.000001 -0.000034 -0.000001 0.000001 0.000000 -0.018087 4.054247 0.511063 -0.018092 -4.054245 -0.511054 0.000001 0.000001 -0.000001 0.000002 -0.000004 -0.000004 0.212557 -5.231001 5.754125 -42.739506 34.146513 8.565999 -0.000013 4.063309 0.000002 36.307906 13.991129 -11.057211 -1.951452 -0.743605 -7.734750 4.645043 -8.656816 -0.231318 -0.000000 -0.000001 -0.000002 0.002567 0.189407 -1.554384 -0.000001 0.000014 0.000062 -0.000000 0.000000 -0.000001 0.002569 0.189410 -1.554386 -0.000001 0.000003 0.000122 0.000002 -0.000004 0.000000 0.002564 0.189404 -1.554383 0.000002 -0.000001 0.000115 0.000002 -0.000001 0.000004 0.002564 0.189405 -1.554381 0.000007 0.000006 0.000010 -0.000001 0.000001 0.000001 0.000002 -0.000002 0.000003 0.000000 0.000000 -0.000001 0.000000 0.000000 -0.000000 0.000000 0.000000 -0.000001 0.000000 0.000000 -0.000001 0.000000 0.000000 -0.000001 0.000000 0.000000 -0.000001 0.000000 0.000000 -0.000001 0.000000 0.000000 -0.000001 0.000000 0.000000 -0.000001 0.000000 0.000000 -0.000001 0.000001 -0.000000 -0.000001 0.000001 -0.000000 -0.000001 0.000001 -0.000000 -0.000001 
-0.863933 69.336365 3.156901 -5.829857 -16.302990 7.710390 0.000001 -0.000001 0.000001 -29.117100 7.953853 4.495575 24.743200 8.728084 0.678898 28.170055 6.411929 -6.246598 0.000001 0.000001 -0.000000 0.000001 0.000000 0.000001 -5.625611 -7.597394 11.861234 23.604692 -10.097511 -0.941566 -12.540381 -10.011623 -16.812586 -0.000000 0.000000 0.000000 0.000001 -0.000000 -0.000000 0.968503 1.494916 -4.281774 1.552685 3.454291 -4.875776 1.585066 3.469683 -4.853022 2.463897 1.609707 3.624303 6.649700 11.284551 7.868932 -0.000001 -0.000000 -0.000000 -0.000001 -0.000000 -0.000000 -0.000001 -0.000000 -0.000001 -0.000001 -0.000000 -0.000000 -0.000001 0.000000 -0.000000 -0.000001 -0.000000 -0.000000 -0.000001 0.000000 -0.000000 -0.000001 -0.000000 -0.000000 -0.000001 -0.000000 -0.000000 0.574223 1.603291 -1.815878 -20.697790 9.000520 -23.723480 -0.000011 -27.489811 -0.000011 42.273024 -4.912388 -12.211367 -1.540047 3.690183 6.142355 3.946765 7.971415 0.752855 0.000001 -0.000003 0.000002 0.000003 0.000004 -0.000003 0.000002 -0.000001 -0.000004 0.000001 0.000000 0.000005 -0.000002 -0.001915 0.015988 -0.000001 0.001919 -0.015984 -0.000000 0.000001 0.000003 0.000000 0.000007 0.000002 -0.000003 0.000003 -0.000035 -0.000003 0.000002 0.000001 -0.018087 4.054244 0.511066 -0.018091 -4.054241 -0.511052 0.000001 0.000000 0.000001 -0.000001 0.000002 0.000002 0.215349 -5.122706 5.672777 -43.983980 36.850134 9.221133 -0.000005 3.892989 0.000007 35.960635 10.271127 -10.808903 -1.940599 -1.643852 -7.370413 4.645039 -8.656814 -0.231320 0.000001 -0.000001 -0.000000 0.001200 0.129387 -1.061763 0.000002 0.000014 0.000064 0.000001 0.000001 -0.000001 0.001195 0.129386 -1.061763 -0.000005 0.000001 0.000113 0.000001 -0.000004 -0.000003 0.001193 0.129383 -1.061767 0.000001 0.000003 0.000109 0.000001 -0.000001 0.000001 0.001198 0.129384 -1.061771 0.000003 0.000009 0.000006 -0.000002 0.000001 -0.000001 0.000001 0.000001 -0.000001 -0.000000 0.000000 0.000000 -0.000000 0.000001 0.000000 -0.000000 0.000000 0.000000 -0.000000 0.000000 0.000000 -0.000000 0.000000 0.000000 -0.000000 0.000001 0.000000 -0.000000 0.000000 0.000000 -0.000000 0.000000 0.000000 -0.000000 0.000000 0.000000 -0.000000 0.000001 0.000000 0.000001 -0.000001 0.000001 0.000001 -0.000001 0.000001 0.000001 -0.000001 0.000001 
